<?xml version="1.0" encoding="utf-8"?>
<!-- Generator: Adobe Illustrator 23.0.1, SVG Export Plug-In . SVG Version: 6.00 Build 0)  -->
<svg version="1.1" id="Layer_1" xmlns="http://www.w3.org/2000/svg" xmlns:xlink="http://www.w3.org/1999/xlink" x="0px" y="0px"
	 viewBox="0 0 300 71" style="enable-background:new 0 0 300 71;" xml:space="preserve">
<style>
	.st0{fill-rule:evenodd;clip-rule:evenodd;fill:#8CC621;}
	.st1{fill:#0B5454;}
</style>
<g>
	<g>
		<path class="st0" d="M31.36,64.06l1.74-3.01c0.37-0.64,1.01-1.01,1.75-1.01h3.47c0.74,0,1.38,0.37,1.75,1.01l1.74,3.01
			c0.37,0.64,0.37,1.38,0,2.02l-1.74,3.01c-0.37,0.64-1.01,1.01-1.75,1.01h-3.47c-0.74,0-1.38-0.37-1.75-1.01l-1.74-3.01
			C30.99,65.44,30.99,64.7,31.36,64.06"/>
		<path class="st0" d="M31.36,52.24l1.74-3.01c0.37-0.64,1.01-1.01,1.75-1.01h3.47c0.74,0,1.38,0.37,1.75,1.01l1.74,3.01
			c0.37,0.64,0.37,1.38,0,2.02l-1.74,3c-0.37,0.64-1.01,1.01-1.75,1.01h-3.47c-0.74,0-1.38-0.37-1.75-1.01l-1.74-3
			C30.99,53.62,30.99,52.89,31.36,52.24"/>
		<path class="st0" d="M31.36,16.98l1.74-3.01c0.37-0.64,1.01-1.01,1.75-1.01h3.47c0.74,0,1.38,0.37,1.75,1.01l1.74,3.01
			c0.37,0.64,0.37,1.38,0,2.02L40.06,22c-0.37,0.64-1.01,1.01-1.75,1.01h-3.47c-0.74,0-1.38-0.37-1.75-1.01L31.36,19
			C30.99,18.36,30.99,17.62,31.36,16.98"/>
		<path class="st0" d="M31.36,5.16l1.74-3.01c0.37-0.64,1.01-1.01,1.75-1.01h3.47c0.74,0,1.38,0.37,1.75,1.01l1.74,3.01
			c0.37,0.64,0.37,1.38,0,2.02l-1.74,3.01c-0.37,0.64-1.01,1.01-1.75,1.01h-3.47c-0.74,0-1.38-0.37-1.75-1.01l-1.74-3.01
			C30.99,6.54,30.99,5.81,31.36,5.16"/>
		<path class="st0" d="M21.38,58.41l1.6-2.77c0.34-0.59,0.93-0.93,1.61-0.93h3.2c0.68,0,1.27,0.34,1.61,0.93l1.6,2.77
			c0.34,0.59,0.34,1.27,0,1.86l-1.6,2.77c-0.34,0.59-0.93,0.93-1.61,0.93h-3.2c-0.68,0-1.27-0.34-1.61-0.93l-1.6-2.77
			C21.04,59.68,21.04,59,21.38,58.41"/>
		<path class="st0" d="M21.38,11.33l1.6-2.77c0.34-0.59,0.93-0.93,1.61-0.93h3.2c0.68,0,1.27,0.34,1.61,0.93l1.6,2.77
			c0.34,0.59,0.34,1.27,0,1.86l-1.6,2.77c-0.34,0.59-0.93,0.93-1.61,0.93h-3.2c-0.68,0-1.27-0.34-1.61-0.93l-1.6-2.77
			C21.04,12.6,21.04,11.93,21.38,11.33"/>
		<path class="st0" d="M11.79,52.82l1.29-2.23c0.28-0.48,0.75-0.75,1.3-0.75h2.58c0.55,0,1.02,0.27,1.3,0.75l1.29,2.23
			c0.28,0.48,0.28,1.02,0,1.5l-1.29,2.23c-0.28,0.48-0.75,0.75-1.3,0.75h-2.58c-0.55,0-1.02-0.27-1.3-0.75l-1.29-2.23
			C11.51,53.84,11.51,53.29,11.79,52.82"/>
		<path class="st0" d="M11.53,40.95l1.37-2.38c0.29-0.51,0.8-0.8,1.38-0.8h2.75c0.59,0,1.09,0.29,1.38,0.8l1.37,2.38
			c0.29,0.51,0.29,1.09,0,1.6l-1.37,2.38c-0.29,0.51-0.8,0.8-1.38,0.8h-2.75c-0.59,0-1.09-0.29-1.38-0.8l-1.37-2.38
			C11.24,42.04,11.24,41.46,11.53,40.95"/>
		<path class="st0" d="M11.53,29.23l1.37-2.38c0.29-0.51,0.8-0.8,1.38-0.8h2.75c0.59,0,1.09,0.29,1.38,0.8l1.37,2.38
			c0.29,0.51,0.29,1.09,0,1.6l-1.37,2.38c-0.29,0.51-0.8,0.8-1.38,0.8h-2.75c-0.59,0-1.09-0.29-1.38-0.8l-1.37-2.38
			C11.24,30.32,11.24,29.73,11.53,29.23"/>
		<path class="st0" d="M11.79,17.46l1.29-2.23c0.28-0.48,0.75-0.75,1.3-0.75h2.58c0.55,0,1.02,0.27,1.3,0.75l1.29,2.23
			c0.28,0.48,0.28,1.02,0,1.5l-1.29,2.23c-0.28,0.48-0.75,0.75-1.3,0.75h-2.58c-0.55,0-1.02-0.27-1.3-0.75l-1.29-2.23
			C11.51,18.48,11.51,17.94,11.79,17.46"/>
		<path class="st0" d="M4.38,47.45l0.69-1.19c0.15-0.25,0.4-0.4,0.69-0.4h1.38c0.29,0,0.55,0.15,0.69,0.4l0.69,1.19
			c0.15,0.25,0.15,0.55,0,0.8l-0.69,1.19c-0.15,0.25-0.4,0.4-0.69,0.4H5.76c-0.29,0-0.55-0.15-0.69-0.4l-0.69-1.19
			C4.23,47.99,4.23,47.7,4.38,47.45"/>
		<path class="st0" d="M3.31,35.52l1.04-1.81c0.22-0.39,0.61-0.61,1.05-0.61h2.09c0.45,0,0.83,0.22,1.05,0.61l1.04,1.81
			c0.22,0.39,0.22,0.83,0,1.21l-1.04,1.81c-0.22,0.39-0.61,0.61-1.05,0.61H5.4c-0.45,0-0.83-0.22-1.05-0.61l-1.04-1.81
			C3.09,36.34,3.09,35.9,3.31,35.52"/>
		<path class="st0" d="M4.38,23.91l0.69-1.19c0.15-0.25,0.4-0.4,0.69-0.4h1.38c0.29,0,0.55,0.15,0.69,0.4l0.69,1.19
			c0.15,0.25,0.15,0.55,0,0.8L7.83,25.9c-0.15,0.25-0.4,0.4-0.69,0.4H5.76c-0.29,0-0.55-0.15-0.69-0.4l-0.69-1.19
			C4.23,24.45,4.23,24.16,4.38,23.91"/>
		<path class="st0" d="M51.73,58.41l-1.6-2.77c-0.34-0.59-0.93-0.93-1.61-0.93h-3.2c-0.68,0-1.27,0.34-1.61,0.93l-1.6,2.77
			c-0.34,0.59-0.34,1.27,0,1.86l1.6,2.77c0.34,0.59,0.93,0.93,1.61,0.93h3.2c0.68,0,1.27-0.34,1.61-0.93l1.6-2.77
			C52.07,59.68,52.07,59,51.73,58.41"/>
		<path class="st0" d="M51.73,11.33l-1.6-2.77c-0.34-0.59-0.93-0.93-1.61-0.93h-3.2c-0.68,0-1.27,0.34-1.61,0.93l-1.6,2.77
			c-0.34,0.59-0.34,1.27,0,1.86l1.6,2.77c0.34,0.59,0.93,0.93,1.61,0.93h3.2c0.68,0,1.27-0.34,1.61-0.93l1.6-2.77
			C52.07,12.6,52.07,11.93,51.73,11.33"/>
		<path class="st0" d="M61.31,52.82l-1.29-2.23c-0.28-0.48-0.75-0.75-1.3-0.75h-2.58c-0.55,0-1.02,0.27-1.3,0.75l-1.29,2.23
			c-0.28,0.48-0.28,1.02,0,1.5l1.29,2.23c0.28,0.48,0.75,0.75,1.3,0.75h2.58c0.55,0,1.02-0.27,1.3-0.75l1.29-2.23
			C61.59,53.84,61.59,53.29,61.31,52.82"/>
		<path class="st0" d="M61.57,40.95l-1.37-2.38c-0.29-0.51-0.8-0.8-1.38-0.8h-2.75c-0.59,0-1.09,0.29-1.38,0.8l-1.37,2.38
			c-0.29,0.51-0.29,1.09,0,1.6l1.37,2.38c0.29,0.51,0.8,0.8,1.38,0.8h2.75c0.59,0,1.09-0.29,1.38-0.8l1.37-2.38
			C61.86,42.04,61.86,41.46,61.57,40.95"/>
		<path class="st0" d="M61.57,29.23l-1.37-2.38c-0.29-0.51-0.8-0.8-1.38-0.8h-2.75c-0.59,0-1.09,0.29-1.38,0.8l-1.37,2.38
			c-0.29,0.51-0.29,1.09,0,1.6l1.37,2.38c0.29,0.51,0.8,0.8,1.38,0.8h2.75c0.59,0,1.09-0.29,1.38-0.8l1.37-2.38
			C61.86,30.32,61.86,29.73,61.57,29.23"/>
		<path class="st0" d="M61.31,17.46l-1.29-2.23c-0.28-0.48-0.75-0.75-1.3-0.75h-2.58c-0.55,0-1.02,0.27-1.3,0.75l-1.29,2.23
			c-0.28,0.48-0.28,1.02,0,1.5l1.29,2.23c0.28,0.48,0.75,0.75,1.3,0.75h2.58c0.55,0,1.02-0.27,1.3-0.75l1.29-2.23
			C61.59,18.48,61.59,17.94,61.31,17.46"/>
		<path class="st0" d="M68.72,47.45l-0.69-1.19c-0.15-0.25-0.4-0.4-0.69-0.4h-1.38c-0.29,0-0.55,0.15-0.69,0.4l-0.69,1.19
			c-0.15,0.25-0.15,0.55,0,0.8l0.69,1.19c0.15,0.25,0.4,0.4,0.69,0.4h1.38c0.29,0,0.55-0.15,0.69-0.4l0.69-1.19
			C68.87,47.99,68.87,47.7,68.72,47.45"/>
		<path class="st0" d="M69.79,35.52l-1.04-1.81c-0.22-0.39-0.61-0.61-1.05-0.61h-2.09c-0.45,0-0.83,0.22-1.05,0.61l-1.04,1.81
			c-0.22,0.39-0.22,0.83,0,1.21l1.04,1.81c0.22,0.39,0.61,0.61,1.05,0.61h2.09c0.45,0,0.83-0.22,1.05-0.61l1.04-1.81
			C70.02,36.34,70.02,35.9,69.79,35.52"/>
		<path class="st0" d="M68.72,23.91l-0.69-1.19c-0.15-0.25-0.4-0.4-0.69-0.4h-1.38c-0.29,0-0.55,0.15-0.69,0.4l-0.69,1.19
			c-0.15,0.25-0.15,0.55,0,0.8l0.69,1.19c0.15,0.25,0.4,0.4,0.69,0.4h1.38c0.29,0,0.55-0.15,0.69-0.4l0.69-1.19
			C68.87,24.45,68.87,24.16,68.72,23.91"/>
		<path class="st0" d="M32.5,41.88l1.36-2.35c0.29-0.5,0.79-0.79,1.37-0.79h2.71c0.58,0,1.08,0.29,1.37,0.79l1.36,2.35
			c0.29,0.5,0.29,1.08,0,1.58L39.3,45.8c-0.29,0.5-0.79,0.79-1.37,0.79h-2.71c-0.58,0-1.08-0.29-1.37-0.79l-1.36-2.35
			C32.21,42.95,32.21,42.38,32.5,41.88"/>
		<path class="st0" d="M32.5,27.78l1.36-2.35c0.29-0.5,0.79-0.79,1.37-0.79h2.71c0.58,0,1.08,0.29,1.37,0.79l1.36,2.35
			c0.29,0.5,0.29,1.08,0,1.58L39.3,31.7c-0.29,0.5-0.79,0.79-1.37,0.79h-2.71c-0.58,0-1.08-0.29-1.37-0.79l-1.36-2.35
			C32.21,28.85,32.21,28.28,32.5,27.78"/>
	</g>
	<path class="st1" d="M289.1,31.6c0,2.26-1.46,3.68-4.88,3.68h-1.97V28.2h2.78C288.12,28.2,289.1,29.21,289.1,31.6 M272.19,47.59
		v-4.51h-10.75v-5.42h9.22v-4.2h-9.22v-5.29h9.97v-4.51h-15.73v23.94H272.19z M252.76,28.16v-4.51h-20.82v4.51h7.53v19.43h5.76
		V28.16H252.76z M230.04,47.59v-4.51H219.3v-5.42h9.22v-4.2h-9.22v-5.29h9.97v-4.51h-15.73v23.94H230.04z M208.24,47.59V23.65h-6.68
		l-7.66,18.79l-6.68-18.79h-7.02v23.94h5.76v-8.91L185.59,33l4.92,14.59h6.44l5.7-14.18l-0.17,5.28v8.91H208.24z M170.24,35.59
		c0,4.48-1.86,7.87-7.15,7.87c-4.88,0-6.81-3.56-6.81-7.93c0-4.41,1.97-7.73,7.05-7.73C168.17,27.79,170.24,31.11,170.24,35.59z
		 M176.1,35.62c0-7.49-3.76-12.38-12.48-12.38c-8.17,0-13.19,4.2-13.19,12.31c0,7.7,4.14,12.44,12.54,12.44
		C171.52,48,176.1,43.59,176.1,35.62z M150.06,47.59l-8.07-12.36l8.07-11.58h-6.44L138.94,31l-4.34-7.35h-6.61l7.63,11.68
		l-8.58,12.26h6.44l5.15-8.06l4.78,8.06H150.06z M125.14,47.59v-4.51h-10.75v-5.42h9.22v-4.2h-9.22v-5.29h9.97v-4.51h-15.73v23.94
		H125.14z M290.38,47.59h6.33l-5.37-9.76c2.47-1.46,3.71-3.75,3.71-6.37c0-5.34-3.87-7.82-9.26-7.82h-9.32v23.94h5.8v-8.27h1.76
		c0.44,0,0.88,0,1.29-0.03l0.44-0.1L290.38,47.59z M103.34,47.59V23.65h-5.76v9.7H87.41v-9.7h-5.76v23.94h5.76v-9.87h10.17v9.87
		H103.34z"/>
</g>
</svg>
